<svg width="37" height="37" viewBox="0 0 37 37" fill="none" xmlns="http://www.w3.org/2000/svg">
<path d="M0.5 36.635V33.635H32.45V36.635H0.5ZM8.05 30.635C5.95 30.635 4.16667 29.91 2.7 28.46C1.23333 27.01 0.5 25.235 0.5 23.135V0.63501H33.5C34.3333 0.63501 35.0417 0.926676 35.625 1.51001C36.2083 2.09334 36.5 2.80168 36.5 3.63501V11.635C36.5 12.4683 36.2083 13.1767 35.625 13.76C35.0417 14.3433 34.3333 14.635 33.5 14.635H28.7V23.135C28.7 25.235 27.9667 27.01 26.5 28.46C25.0333 29.91 23.25 30.635 21.15 30.635H8.05ZM8.05 27.635H21.15C22.35 27.635 23.4083 27.1767 24.325 26.26C25.2417 25.3433 25.7 24.3017 25.7 23.135V13.385V3.63501H3.5V23.135C3.5 24.3017 3.96667 25.3433 4.9 26.26C5.83333 27.1767 6.88333 27.635 8.05 27.635ZM28.7 11.635H33.5V3.63501H28.7V11.635Z" fill="#356044"/>
</svg>
