<svg width="36" height="37" viewBox="0 0 36 37" fill="none" xmlns="http://www.w3.org/2000/svg">
<path d="M0 36.5V33.5H31.95V36.5H0ZM7.55 30.5C5.45 30.5 3.66667 29.775 2.2 28.325C0.733333 26.875 0 25.1 0 23V0.5H33C33.8333 0.5 34.5417 0.791667 35.125 1.375C35.7083 1.95833 36 2.66667 36 3.5V11.5C36 12.3333 35.7083 13.0417 35.125 13.625C34.5417 14.2083 33.8333 14.5 33 14.5H28.2V23C28.2 25.1 27.4667 26.875 26 28.325C24.5333 29.775 22.75 30.5 20.65 30.5H7.55ZM7.55 27.5H20.65C21.85 27.5 22.9083 27.0417 23.825 26.125C24.7417 25.2083 25.2 24.1667 25.2 23V13.25V3.5H3V23C3 24.1667 3.46667 25.2083 4.4 26.125C5.33333 27.0417 6.38333 27.5 7.55 27.5ZM28.2 11.5H33V3.5H28.2V11.5Z" fill="#95AF9E"/>
</svg>
