<svg width="85" height="86" viewBox="0 0 85 86" fill="none" xmlns="http://www.w3.org/2000/svg">
<circle cx="42.5" cy="42.635" r="42.5" fill="#558164"/>
<path d="M38.25 46.4L40.05 40.65L35.3 36.95H41.1L43 31L44.85 36.95H50.7L45.95 40.65L47.7 46.4L43 42.85L38.25 46.4ZM31.2 65V49.8C29.7 48.2333 28.625 46.5167 27.975 44.65C27.325 42.7833 27 40.9 27 39C27 34.4667 28.5333 30.6667 31.6 27.6C34.6667 24.5333 38.4667 23 43 23C47.5333 23 51.3333 24.5333 54.4 27.6C57.4667 30.6667 59 34.4667 59 39C59 40.9 58.675 42.7833 58.025 44.65C57.375 46.5167 56.3 48.2333 54.8 49.8V65L43 61.05L31.2 65ZM43 52C46.6333 52 49.7083 50.7417 52.225 48.225C54.7417 45.7083 56 42.6333 56 39C56 35.3667 54.7417 32.2917 52.225 29.775C49.7083 27.2583 46.6333 26 43 26C39.3667 26 36.2917 27.2583 33.775 29.775C31.2583 32.2917 30 35.3667 30 39C30 42.6333 31.2583 45.7083 33.775 48.225C36.2917 50.7417 39.3667 52 43 52ZM34.2 60.8L43 58.05L51.8 60.8V52.25C50.4667 53.2167 49.0333 53.9167 47.5 54.35C45.9667 54.7833 44.4667 55 43 55C41.5333 55 40.0333 54.7833 38.5 54.35C36.9667 53.9167 35.5333 53.2167 34.2 52.25V60.8Z" fill="#E2E6E3"/>
</svg>
