<svg width="33" height="33" viewBox="0 0 33 33" fill="none" xmlns="http://www.w3.org/2000/svg">
<path fill-rule="evenodd" clip-rule="evenodd" d="M26.4412 20.9824L22.9487 20.5837C22.11 20.4874 21.285 20.7762 20.6937 21.3674L18.1637 23.8974C14.2725 21.9174 11.0825 18.7412 9.10249 14.8362L11.6462 12.2924C12.2375 11.7012 12.5262 10.8762 12.43 10.0374L12.0312 6.57242C11.8662 5.18367 10.6975 4.13867 9.295 4.13867H6.91625C5.3625 4.13867 4.06999 5.43117 4.16624 6.98492C4.89499 18.7274 14.2862 28.1049 26.015 28.8337C27.5687 28.9299 28.8612 27.6374 28.8612 26.0837V23.7049C28.875 22.3162 27.83 21.1474 26.4412 20.9824Z" fill="#CECCCC"/>
</svg>
