<svg width="40" height="41" viewBox="0 0 40 41" fill="none" xmlns="http://www.w3.org/2000/svg">
<path d="M27.3 17.985C28.0667 17.985 28.7083 17.7183 29.225 17.185C29.7417 16.6517 30 16.0183 30 15.285C30 14.5183 29.7417 13.8767 29.225 13.36C28.7083 12.8433 28.0667 12.585 27.3 12.585C26.5667 12.585 25.9333 12.8433 25.4 13.36C24.8667 13.8767 24.6 14.5183 24.6 15.285C24.6 16.0183 24.8667 16.6517 25.4 17.185C25.9333 17.7183 26.5667 17.985 27.3 17.985ZM12.7 17.985C13.4667 17.985 14.1083 17.7183 14.625 17.185C15.1417 16.6517 15.4 16.0183 15.4 15.285C15.4 14.5183 15.1417 13.8767 14.625 13.36C14.1083 12.8433 13.4667 12.585 12.7 12.585C11.9667 12.585 11.3333 12.8433 10.8 13.36C10.2667 13.8767 10 14.5183 10 15.285C10 16.0183 10.2667 16.6517 10.8 17.185C11.3333 17.7183 11.9667 17.985 12.7 17.985ZM20 31.585C22.2 31.585 24.225 30.9933 26.075 29.81C27.925 28.6267 29.2667 27.0183 30.1 24.985H27.5C26.7333 26.3183 25.6833 27.3433 24.35 28.06C23.0167 28.7767 21.5833 29.135 20.05 29.135C18.4833 29.135 17.025 28.785 15.675 28.085C14.325 27.385 13.2833 26.3517 12.55 24.985H9.9C10.7667 27.0183 12.1167 28.6267 13.95 29.81C15.7833 30.9933 17.8 31.585 20 31.585ZM20 40.635C17.2333 40.635 14.6333 40.11 12.2 39.06C9.76667 38.01 7.65 36.585 5.85 34.785C4.05 32.985 2.625 30.8683 1.575 28.435C0.525 26.0017 0 23.4017 0 20.635C0 17.8683 0.525 15.2683 1.575 12.835C2.625 10.4017 4.05 8.28501 5.85 6.48501C7.65 4.68501 9.76667 3.26001 12.2 2.21001C14.6333 1.16001 17.2333 0.63501 20 0.63501C22.7667 0.63501 25.3667 1.16001 27.8 2.21001C30.2333 3.26001 32.35 4.68501 34.15 6.48501C35.95 8.28501 37.375 10.4017 38.425 12.835C39.475 15.2683 40 17.8683 40 20.635C40 23.4017 39.475 26.0017 38.425 28.435C37.375 30.8683 35.95 32.985 34.15 34.785C32.35 36.585 30.2333 38.01 27.8 39.06C25.3667 40.11 22.7667 40.635 20 40.635ZM20 37.635C24.7333 37.635 28.75 35.985 32.05 32.685C35.35 29.385 37 25.3683 37 20.635C37 15.9017 35.35 11.885 32.05 8.58501C28.75 5.28501 24.7333 3.63501 20 3.63501C15.2667 3.63501 11.25 5.28501 7.95 8.58501C4.65 11.885 3 15.9017 3 20.635C3 25.3683 4.65 29.385 7.95 32.685C11.25 35.985 15.2667 37.635 20 37.635Z" fill="#356044"/>
</svg>
