<svg width="41" height="41" viewBox="0 0 41 41" fill="none" xmlns="http://www.w3.org/2000/svg">
<path d="M27.8 17.85C28.5667 17.85 29.2083 17.5833 29.725 17.05C30.2417 16.5167 30.5 15.8833 30.5 15.15C30.5 14.3833 30.2417 13.7417 29.725 13.225C29.2083 12.7083 28.5667 12.45 27.8 12.45C27.0667 12.45 26.4333 12.7083 25.9 13.225C25.3667 13.7417 25.1 14.3833 25.1 15.15C25.1 15.8833 25.3667 16.5167 25.9 17.05C26.4333 17.5833 27.0667 17.85 27.8 17.85ZM13.2 17.85C13.9667 17.85 14.6083 17.5833 15.125 17.05C15.6417 16.5167 15.9 15.8833 15.9 15.15C15.9 14.3833 15.6417 13.7417 15.125 13.225C14.6083 12.7083 13.9667 12.45 13.2 12.45C12.4667 12.45 11.8333 12.7083 11.3 13.225C10.7667 13.7417 10.5 14.3833 10.5 15.15C10.5 15.8833 10.7667 16.5167 11.3 17.05C11.8333 17.5833 12.4667 17.85 13.2 17.85ZM20.5 31.45C22.7 31.45 24.725 30.8583 26.575 29.675C28.425 28.4917 29.7667 26.8833 30.6 24.85H28C27.2333 26.1833 26.1833 27.2083 24.85 27.925C23.5167 28.6417 22.0833 29 20.55 29C18.9833 29 17.525 28.65 16.175 27.95C14.825 27.25 13.7833 26.2167 13.05 24.85H10.4C11.2667 26.8833 12.6167 28.4917 14.45 29.675C16.2833 30.8583 18.3 31.45 20.5 31.45V31.45ZM20.5 40.5C17.7333 40.5 15.1333 39.975 12.7 38.925C10.2667 37.875 8.15 36.45 6.35 34.65C4.55 32.85 3.125 30.7333 2.075 28.3C1.025 25.8667 0.5 23.2667 0.5 20.5C0.5 17.7333 1.025 15.1333 2.075 12.7C3.125 10.2667 4.55 8.15 6.35 6.35C8.15 4.55 10.2667 3.125 12.7 2.075C15.1333 1.025 17.7333 0.5 20.5 0.5C23.2667 0.5 25.8667 1.025 28.3 2.075C30.7333 3.125 32.85 4.55 34.65 6.35C36.45 8.15 37.875 10.2667 38.925 12.7C39.975 15.1333 40.5 17.7333 40.5 20.5C40.5 23.2667 39.975 25.8667 38.925 28.3C37.875 30.7333 36.45 32.85 34.65 34.65C32.85 36.45 30.7333 37.875 28.3 38.925C25.8667 39.975 23.2667 40.5 20.5 40.5ZM20.5 37.5C25.2333 37.5 29.25 35.85 32.55 32.55C35.85 29.25 37.5 25.2333 37.5 20.5C37.5 15.7667 35.85 11.75 32.55 8.45C29.25 5.15 25.2333 3.5 20.5 3.5C15.7667 3.5 11.75 5.15 8.45 8.45C5.15 11.75 3.5 15.7667 3.5 20.5C3.5 25.2333 5.15 29.25 8.45 32.55C11.75 35.85 15.7667 37.5 20.5 37.5Z" fill="#95AF9E"/>
</svg>
