<svg width="85" height="86" viewBox="0 0 85 86" fill="none" xmlns="http://www.w3.org/2000/svg">
<circle cx="42.5" cy="42.635" r="42.5" fill="#356044"/>
<path d="M52.6 46.3625C53.4333 46.3625 54.175 46.0443 54.825 45.4078C55.475 44.7714 55.8 44.0288 55.8 43.1802C55.8 42.3643 55.475 41.6462 54.825 41.0261C54.175 40.4059 53.4333 40.0959 52.6 40.0959C51.7667 40.0959 51.025 40.4059 50.375 41.0261C49.725 41.6462 49.4 42.3643 49.4 43.1802C49.4 44.0288 49.725 44.7714 50.375 45.4078C51.025 46.0443 51.7667 46.3625 52.6 46.3625ZM29 55.3219V57.9167V28.5417V55.3219ZM29 60.8542C28.2333 60.8542 27.5417 60.5604 26.925 59.9729C26.3083 59.3854 26 58.7 26 57.9167V28.5417C26 27.791 26.3083 27.1137 26.925 26.5099C27.5417 25.9061 28.2333 25.6042 29 25.6042H59C59.8 25.6042 60.5 25.9061 61.1 26.5099C61.7 27.1137 62 27.791 62 28.5417V35.1021H59V28.5417H29V57.9167H59V51.4052H62V57.9167C62 58.7 61.7 59.3854 61.1 59.9729C60.5 60.5604 59.8 60.8542 59 60.8542H29ZM46.9 52.3844C45.7667 52.3844 44.8667 52.058 44.2 51.4052C43.5333 50.7524 43.2 49.8875 43.2 48.8104V37.6969C43.2 36.5872 43.5333 35.7141 44.2 35.0776C44.8667 34.4412 45.7667 34.1229 46.9 34.1229H60.4C61.5333 34.1229 62.4333 34.4412 63.1 35.0776C63.7667 35.7141 64.1 36.5872 64.1 37.6969V48.8104C64.1 49.8875 63.7667 50.7524 63.1 51.4052C62.4333 52.058 61.5333 52.3844 60.4 52.3844H46.9ZM61.1 49.4469V37.0604H46.2V49.4469H61.1Z" fill="#E2E6E3"/>
</svg>
