<svg width="33" height="33" viewBox="0 0 33 33" fill="none" xmlns="http://www.w3.org/2000/svg">
<path d="M0 33L2.33067 24.5244C0.890049 22.0388 0.133384 19.2193 0.136963 16.35C0.136963 7.33486 7.51109 0 16.5679 0C18.7269 0.000300402 20.8646 0.423925 22.859 1.24667C24.8534 2.06941 26.6654 3.27515 28.1914 4.79499C29.7173 6.31484 30.9274 8.119 31.7525 10.1044C32.5776 12.0898 33.0015 14.2175 33 16.366C33 25.3811 25.6247 32.7171 16.5691 32.7171H16.5622C13.8189 32.7169 11.1193 32.0326 8.71038 30.7265L0 33ZM9.11321 27.7657L9.61272 28.0601C11.717 29.3003 14.1177 29.9546 16.5633 29.9545H16.5691C24.0963 29.9545 30.2228 23.8578 30.2262 16.3637C30.2263 14.258 29.7347 12.1811 28.7902 10.2968C27.8457 8.41245 26.4742 6.77232 24.7837 5.50575C23.0933 4.23918 21.1303 3.38082 19.0495 2.99837C16.9687 2.61593 14.827 2.71988 12.7935 3.30201C10.76 3.88414 8.89019 4.92852 7.33165 6.35278C5.7731 7.77704 4.56844 9.54221 3.81269 11.509C3.05694 13.4759 2.77077 15.5905 2.97677 17.6862C3.18277 19.782 3.8753 21.8014 4.99972 23.5852L5.32429 24.0994L3.94315 29.115L9.11321 27.7657Z" fill="#CECCCC"/>
<path fill-rule="evenodd" clip-rule="evenodd" d="M24.9405 20.1443C24.8423 19.9783 24.5795 19.8791 24.1854 19.6797C23.7913 19.4802 21.8562 18.5197 21.4952 18.3882C21.1342 18.2567 20.8715 18.1887 20.6121 18.5876C20.3526 18.9866 19.5954 19.8814 19.3657 20.1477C19.1361 20.414 18.9065 20.4463 18.5124 20.2469C18.1183 20.0474 16.8499 19.6284 15.3464 18.2734C14.1751 17.2193 13.3847 15.9177 13.1562 15.5199C12.9277 15.1221 13.1319 14.907 13.3284 14.7087C13.5062 14.5304 13.7225 14.244 13.919 14.0122C14.0814 13.8095 14.2141 13.5844 14.3131 13.3436C14.3653 13.2339 14.3896 13.1128 14.3838 12.9912C14.3781 12.8696 14.3424 12.7514 14.28 12.6472C14.1818 12.4477 13.3969 10.4921 13.0657 9.69647C12.7467 8.91645 12.421 9.02788 12.1826 9.01339C11.9441 8.9989 11.6902 9.00002 11.4275 9.00002C11.228 9.00533 11.0318 9.05222 10.8511 9.13774C10.6705 9.22327 10.5093 9.34559 10.3777 9.49701C10.0167 9.89482 9 10.8565 9 12.8132C9 14.77 10.4108 16.6599 10.6084 16.9251C10.806 17.1903 13.3847 21.2052 17.3357 22.9268C18.0689 23.246 18.8184 23.5257 19.581 23.7648C20.3841 24.0111 21.2331 24.0648 22.0604 23.9219C22.8177 23.8105 24.3908 22.9602 24.7186 22.0275C25.0465 21.0949 25.0388 20.3104 24.9405 20.1443Z" fill="#CECCCC"/>
</svg>
