<svg width="63" height="72" viewBox="0 0 63 72" fill="none" xmlns="http://www.w3.org/2000/svg">
<path d="M11.6488 17.1175C11.6488 29.4667 11.6488 41.7565 11.6488 54.12C11.8435 54.12 12.0239 54.12 12.2043 54.12C21.5472 54.12 30.8911 54.1364 40.234 54.1077C42.3055 54.1016 44.3412 53.8033 46.2179 52.7988C47.78 51.9634 48.8573 50.717 49.5379 49.1037C50.2862 47.3304 50.6931 45.469 50.8663 43.5615C51.0385 41.6714 51.2445 39.7762 51.264 37.8809C51.3409 30.6752 51.3481 23.4684 51.3819 16.2616C51.3829 16.1263 51.3819 15.991 51.3819 15.8178C51.7898 15.8178 52.1711 15.8178 52.5852 15.8178C52.5955 15.9152 52.6139 16.0115 52.6139 16.1089C52.615 23.7267 52.5514 31.3332 52.5114 38.95C52.4274 41.0912 52.3372 41.862 52.2091 43.3134C52.0481 45.1328 51.6914 46.9173 51.1226 48.6465C50.2185 51.3986 48.5201 53.4394 45.7372 54.5003C43.9845 55.1686 42.1641 55.433 40.3201 55.4382C30.5672 55.4648 20.8133 55.4484 11.0604 55.4474C10.8073 55.4474 10.5541 55.4474 10.262 55.4474C10.262 42.2064 10.262 29.0198 10.262 15.784C10.5069 15.784 10.6904 15.784 10.8729 15.784C14.8529 15.784 18.833 15.7645 22.8121 15.7932C24.4254 15.8045 26.0131 16.0607 27.5076 16.7106C28.6822 17.2221 29.7841 17.9016 30.4893 18.9717C31.1986 20.049 31.6927 21.2626 31.911 22.5582C32.2267 24.4268 32.3138 26.2933 32.0299 28.1834C31.8556 29.3458 31.6096 30.4661 31.01 31.4808C30.2464 32.7734 29.1343 33.6467 27.7003 34.0679C28.4291 34.4144 29.1722 34.6881 29.8333 35.095C31.5194 36.1333 32.3548 37.7733 32.8181 39.6265C33.3357 41.697 33.2886 43.8095 33.1133 45.9098C33.0313 46.8907 32.7382 47.8552 32.5178 48.8218C32.4225 49.0975 32.4225 49.0975 32.4225 49.0975C32.0125 49.0975 31.4477 49.0965 31.0018 49.0965C31.1463 48.583 31.2714 48.1371 31.3954 47.6922C31.8895 45.9272 31.8075 44.1191 31.7982 42.3171C31.7911 40.9313 31.5256 39.6091 30.9157 38.3494C30.0465 36.5536 28.5767 35.4681 26.788 34.7434C26.2653 34.5312 25.7231 34.3662 25.0958 34.1458C25.6872 33.9019 26.2151 33.7082 26.7224 33.4704C27.893 32.923 28.9467 32.2291 29.6662 31.1057C30.2208 30.2385 30.5231 29.2791 30.6625 28.2849C30.8009 27.2968 30.9157 26.2841 30.8511 25.2939C30.7722 24.0906 30.6123 22.8667 30.2792 21.7116C29.6396 19.4924 28.1728 18.0287 25.8584 17.5593C24.8621 17.3574 23.8463 17.1534 22.8367 17.139C19.3363 17.0857 15.8339 17.1175 12.3325 17.1175C12.1285 17.1175 11.9245 17.1175 11.6488 17.1175Z" fill="#FFFDFF"/>
<path d="M0.237488 0V71.135H62.7625V0H0.237488ZM61.4792 69.8025H1.62329V1.025H61.4792V69.8025Z" fill="#FFFDFF"/>
</svg>
